<?xml version="1.0" encoding="UTF-8"?><svg id="Layer_1" xmlns="http://www.w3.org/2000/svg" viewBox="0 0 169.72 172.67"><defs><style>.cls-1{fill:#fff;}.cls-1,.cls-2,.cls-3,.cls-4,.cls-5{fill-rule:evenodd;}.cls-6{fill:#efefef;}.cls-2{fill:#c2c2c1;}.cls-3{fill:#5384c4;}.cls-4{fill:#fedb43;}.cls-7{fill:#dc4b3e;}.cls-8{fill:#802c27;}.cls-5{fill:#1ea361;}</style></defs><path class="cls-5" d="M0,157.15V34.25c0-7.14,5.8-12.94,12.94-12.94h122.89L0,157.15Z"/><path class="cls-4" d="M0,159.72v-2.58L135.84,21.31h2.58c7.15,0,12.95,5.8,12.95,12.94v2.58L15.52,172.67h-2.58c-7.15,0-12.94-5.8-12.94-12.94Z"/><polygon class="cls-3" points="15.52 172.67 75.68 112.51 135.84 172.67 15.52 172.67"/><path class="cls-1" d="M135.84,172.67l-61.08-61.08,15.52-15.52,61.08,61.08v2.58c0,7.14-5.8,12.94-12.95,12.94h-2.58Z"/><polygon class="cls-2" points="151.36 157.15 91.2 96.99 151.36 36.83 151.36 157.15"/><path class="cls-6" d="M27,38.04c7.7-3.53,17.34-2.09,23.59,3.68-1.96,1.99-3.97,3.94-5.98,5.88-6.26-6.21-18.01-3.26-20.94,4.95-3.84,8.08,2.54,18.7,11.55,18.82,5.9.69,11.78-3.26,13.03-9.14-4.12,0-8.23-.03-12.35.03-.12-2.54-.13-5.08-.08-7.62,6.88.18,13.93-.39,20.71.28.52,5.03.16,10.38-2.54,14.79-4.24,7.9-14.27,11.35-22.75,9.36-10.48-2.17-18.33-12.93-16.9-23.58.73-7.52,5.81-14.33,12.65-17.44Z"/><path class="cls-7" d="M124.92,0h4.92c12.26.7,24.25,6.69,31.69,16.55,4.87,6.23,7.58,13.95,8.2,21.8v2.91c-.29,15.21-10.02,27.7-18.45,39.53-9.46,13.37-18.21,27.94-20.63,44.42-.65,2.79.13,6.7-3.21,7.96-.78-.61-1.7-1.12-2.25-1.97-.99-9.21-3.29-18.31-7.22-26.73-4.46-9.8-10.67-18.66-16.98-27.33-3.84-5.2-7.46-10.58-10.46-16.31-4.71-8.59-6.46-18.75-4.54-28.4,1.58-7.61,5.56-14.67,11.08-20.13,7.43-7.27,17.48-11.67,27.85-12.32ZM123.96,26.8c-5.82,1.3-10.7,6.44-11.19,12.47-.61,5.61,2.67,11.3,7.7,13.77,5.45,2.88,12.6,2,17.15-2.17,4.25-3.76,5.8-10.25,3.58-15.5-2.63-6.57-10.42-10.32-17.24-8.57Z"/><path class="cls-8" d="M123.96,26.8c6.81-1.74,14.61,2,17.24,8.57,2.22,5.25.67,11.74-3.58,15.5-4.55,4.17-11.7,5.05-17.15,2.17-5.03-2.48-8.31-8.16-7.7-13.77.49-6.02,5.37-11.17,11.19-12.47Z"/></svg>